<svg width="267" height="267" viewBox="0 0 267 267" fill="none" xmlns="http://www.w3.org/2000/svg">
<rect width="4.17188" height="4.17188" rx="2.08594" fill="#3B71FE"/>
<rect x="29.2031" width="4.17188" height="4.17188" rx="2.08594" fill="#3B71FE"/>
<rect x="58.4062" width="4.17188" height="4.17188" rx="2.08594" fill="#3B71FE"/>
<rect x="87.6094" width="4.17188" height="4.17188" rx="2.08594" fill="#3B71FE"/>
<rect x="116.812" width="4.17188" height="4.17188" rx="2.08594" fill="#3B71FE"/>
<rect x="146.016" width="4.17188" height="4.17188" rx="2.08594" fill="#3B71FE"/>
<rect x="175.219" width="4.17188" height="4.17188" rx="2.08594" fill="#3B71FE"/>
<rect x="204.422" width="4.17188" height="4.17188" rx="2.08594" fill="#3B71FE"/>
<rect x="233.625" width="4.17188" height="4.17188" rx="2.08594" fill="#3B71FE"/>
<rect x="262.828" width="4.17188" height="4.17188" rx="2.08594" fill="#3B71FE"/>
<rect y="29.2031" width="4.17188" height="4.17188" rx="2.08594" fill="#3B71FE"/>
<rect x="29.2031" y="29.2031" width="4.17188" height="4.17188" rx="2.08594" fill="#3B71FE"/>
<rect x="58.4062" y="29.2031" width="4.17188" height="4.17188" rx="2.08594" fill="#3B71FE"/>
<rect x="87.6094" y="29.2031" width="4.17188" height="4.17188" rx="2.08594" fill="#3B71FE"/>
<rect x="116.812" y="29.2031" width="4.17188" height="4.17188" rx="2.08594" fill="#3B71FE"/>
<rect x="146.016" y="29.2031" width="4.17188" height="4.17188" rx="2.08594" fill="#3B71FE"/>
<rect x="175.219" y="29.2031" width="4.17188" height="4.17188" rx="2.08594" fill="#3B71FE"/>
<rect x="204.422" y="29.2031" width="4.17188" height="4.17188" rx="2.08594" fill="#3B71FE"/>
<rect x="233.625" y="29.2031" width="4.17188" height="4.17188" rx="2.08594" fill="#3B71FE"/>
<rect x="262.828" y="29.2031" width="4.17188" height="4.17188" rx="2.08594" fill="#3B71FE"/>
<rect y="58.4062" width="4.17188" height="4.17188" rx="2.08594" fill="#3B71FE"/>
<rect x="29.2031" y="58.4062" width="4.17188" height="4.17188" rx="2.08594" fill="#3B71FE"/>
<rect x="58.4062" y="58.4062" width="4.17188" height="4.17188" rx="2.08594" fill="#3B71FE"/>
<rect x="87.6094" y="58.4062" width="4.17188" height="4.17188" rx="2.08594" fill="#3B71FE"/>
<rect x="116.812" y="58.4062" width="4.17188" height="4.17188" rx="2.08594" fill="#3B71FE"/>
<rect x="146.016" y="58.4062" width="4.17188" height="4.17188" rx="2.08594" fill="#3B71FE"/>
<rect x="175.219" y="58.4062" width="4.17188" height="4.17188" rx="2.08594" fill="#3B71FE"/>
<rect x="204.422" y="58.4062" width="4.17188" height="4.17188" rx="2.08594" fill="#3B71FE"/>
<rect x="233.625" y="58.4062" width="4.17188" height="4.17188" rx="2.08594" fill="#3B71FE"/>
<rect x="262.828" y="58.4062" width="4.17188" height="4.17188" rx="2.08594" fill="#3B71FE"/>
<rect y="87.6094" width="4.17188" height="4.17188" rx="2.08594" fill="#3B71FE"/>
<rect x="29.2031" y="87.6094" width="4.17188" height="4.17188" rx="2.08594" fill="#3B71FE"/>
<rect x="58.4062" y="87.6094" width="4.17188" height="4.17188" rx="2.08594" fill="#3B71FE"/>
<rect x="87.6094" y="87.6094" width="4.17188" height="4.17188" rx="2.08594" fill="#3B71FE"/>
<rect x="116.812" y="87.6094" width="4.17188" height="4.17188" rx="2.08594" fill="#3B71FE"/>
<rect x="146.016" y="87.6094" width="4.17188" height="4.17188" rx="2.08594" fill="#3B71FE"/>
<rect x="175.219" y="87.6094" width="4.17188" height="4.17188" rx="2.08594" fill="#3B71FE"/>
<rect x="204.422" y="87.6094" width="4.17188" height="4.17188" rx="2.08594" fill="#3B71FE"/>
<rect x="233.625" y="87.6094" width="4.17188" height="4.17188" rx="2.08594" fill="#3B71FE"/>
<rect x="262.828" y="87.6094" width="4.17188" height="4.17188" rx="2.08594" fill="#3B71FE"/>
<rect y="116.812" width="4.17188" height="4.17188" rx="2.08594" fill="#3B71FE"/>
<rect x="29.2031" y="116.812" width="4.17188" height="4.17188" rx="2.08594" fill="#3B71FE"/>
<rect x="58.4062" y="116.812" width="4.17188" height="4.17188" rx="2.08594" fill="#3B71FE"/>
<rect x="87.6094" y="116.812" width="4.17188" height="4.17188" rx="2.08594" fill="#3B71FE"/>
<rect x="116.812" y="116.812" width="4.17188" height="4.17188" rx="2.08594" fill="#3B71FE"/>
<rect x="146.016" y="116.812" width="4.17188" height="4.17188" rx="2.08594" fill="#3B71FE"/>
<rect x="175.219" y="116.812" width="4.17188" height="4.17188" rx="2.08594" fill="#3B71FE"/>
<rect x="204.422" y="116.812" width="4.17188" height="4.17188" rx="2.08594" fill="#3B71FE"/>
<rect x="233.625" y="116.812" width="4.17188" height="4.17188" rx="2.08594" fill="#3B71FE"/>
<rect x="262.828" y="116.812" width="4.17188" height="4.17188" rx="2.08594" fill="#3B71FE"/>
<rect y="146.016" width="4.17188" height="4.17188" rx="2.08594" fill="#3B71FE"/>
<rect x="29.2031" y="146.016" width="4.17188" height="4.17188" rx="2.08594" fill="#3B71FE"/>
<rect x="58.4062" y="146.016" width="4.17188" height="4.17188" rx="2.08594" fill="#3B71FE"/>
<rect x="87.6094" y="146.016" width="4.17188" height="4.17188" rx="2.08594" fill="#3B71FE"/>
<rect x="116.812" y="146.016" width="4.17188" height="4.17188" rx="2.08594" fill="#3B71FE"/>
<rect x="146.016" y="146.016" width="4.17188" height="4.17188" rx="2.08594" fill="#3B71FE"/>
<rect x="175.219" y="146.016" width="4.17188" height="4.17188" rx="2.08594" fill="#3B71FE"/>
<rect x="204.422" y="146.016" width="4.17188" height="4.17188" rx="2.08594" fill="#3B71FE"/>
<rect x="233.625" y="146.016" width="4.17188" height="4.17188" rx="2.08594" fill="#3B71FE"/>
<rect x="262.828" y="146.016" width="4.17188" height="4.17188" rx="2.08594" fill="#3B71FE"/>
<rect y="175.219" width="4.17188" height="4.17188" rx="2.08594" fill="#3B71FE"/>
<rect y="204.422" width="4.17188" height="4.17188" rx="2.08594" fill="#3B71FE"/>
<rect y="233.625" width="4.17188" height="4.17188" rx="2.08594" fill="#3B71FE"/>
<rect y="262.828" width="4.17188" height="4.17188" rx="2.08594" fill="#3B71FE"/>
<rect x="29.2031" y="175.219" width="4.17188" height="4.17188" rx="2.08594" fill="#3B71FE"/>
<rect x="29.2031" y="204.422" width="4.17188" height="4.17188" rx="2.08594" fill="#3B71FE"/>
<rect x="29.2031" y="233.625" width="4.17188" height="4.17188" rx="2.08594" fill="#3B71FE"/>
<rect x="29.2031" y="262.828" width="4.17188" height="4.17188" rx="2.08594" fill="#3B71FE"/>
<rect x="58.4062" y="175.219" width="4.17188" height="4.17188" rx="2.08594" fill="#3B71FE"/>
<rect x="58.4062" y="204.422" width="4.17188" height="4.17188" rx="2.08594" fill="#3B71FE"/>
<rect x="58.4062" y="233.625" width="4.17188" height="4.17188" rx="2.08594" fill="#3B71FE"/>
<rect x="58.4062" y="262.828" width="4.17188" height="4.17188" rx="2.08594" fill="#3B71FE"/>
<rect x="87.6094" y="175.219" width="4.17188" height="4.17188" rx="2.08594" fill="#3B71FE"/>
<rect x="87.6094" y="204.422" width="4.17188" height="4.17188" rx="2.08594" fill="#3B71FE"/>
<rect x="87.6094" y="233.625" width="4.17188" height="4.17188" rx="2.08594" fill="#3B71FE"/>
<rect x="87.6094" y="262.828" width="4.17188" height="4.17188" rx="2.08594" fill="#3B71FE"/>
<rect x="116.812" y="175.219" width="4.17188" height="4.17188" rx="2.08594" fill="#3B71FE"/>
<rect x="116.812" y="204.422" width="4.17188" height="4.17188" rx="2.08594" fill="#3B71FE"/>
<rect x="116.812" y="233.625" width="4.17188" height="4.17188" rx="2.08594" fill="#3B71FE"/>
<rect x="116.812" y="262.828" width="4.17188" height="4.17188" rx="2.08594" fill="#3B71FE"/>
<rect x="146.016" y="175.219" width="4.17188" height="4.17188" rx="2.08594" fill="#3B71FE"/>
<rect x="146.016" y="204.422" width="4.17188" height="4.17188" rx="2.08594" fill="#3B71FE"/>
<rect x="146.016" y="233.625" width="4.17188" height="4.17188" rx="2.08594" fill="#3B71FE"/>
<rect x="146.016" y="262.828" width="4.17188" height="4.17188" rx="2.08594" fill="#3B71FE"/>
<rect x="175.219" y="175.219" width="4.17188" height="4.17188" rx="2.08594" fill="#3B71FE"/>
<rect x="175.219" y="204.422" width="4.17188" height="4.17188" rx="2.08594" fill="#3B71FE"/>
<rect x="175.219" y="233.625" width="4.17188" height="4.17188" rx="2.08594" fill="#3B71FE"/>
<rect x="175.219" y="262.828" width="4.17188" height="4.17188" rx="2.08594" fill="#3B71FE"/>
<rect x="204.422" y="175.219" width="4.17188" height="4.17188" rx="2.08594" fill="#3B71FE"/>
<rect x="204.422" y="204.422" width="4.17188" height="4.17188" rx="2.08594" fill="#3B71FE"/>
<rect x="204.422" y="233.625" width="4.17188" height="4.17188" rx="2.08594" fill="#3B71FE"/>
<rect x="204.422" y="262.828" width="4.17188" height="4.17188" rx="2.08594" fill="#3B71FE"/>
<rect x="233.625" y="175.219" width="4.17188" height="4.17188" rx="2.08594" fill="#3B71FE"/>
<rect x="233.625" y="204.422" width="4.17188" height="4.17188" rx="2.08594" fill="#3B71FE"/>
<rect x="233.625" y="233.625" width="4.17188" height="4.17188" rx="2.08594" fill="#3B71FE"/>
<rect x="233.625" y="262.828" width="4.17188" height="4.17188" rx="2.08594" fill="#3B71FE"/>
<rect x="262.828" y="175.219" width="4.17188" height="4.17188" rx="2.08594" fill="#3B71FE"/>
<rect x="262.828" y="204.422" width="4.17188" height="4.17188" rx="2.08594" fill="#3B71FE"/>
<rect x="262.828" y="233.625" width="4.17188" height="4.17188" rx="2.08594" fill="#3B71FE"/>
<rect x="262.828" y="262.828" width="4.17188" height="4.17188" rx="2.08594" fill="#3B71FE"/>
</svg>
