<svg width="284" height="110" viewBox="0 0 284 110" fill="none" xmlns="http://www.w3.org/2000/svg">
<path d="M280.958 1.21159C280.798 0.682777 280.24 0.38321 279.712 0.542492L271.094 3.13815C270.565 3.29743 270.266 3.85524 270.425 4.38406C270.584 4.91288 271.142 5.21245 271.671 5.05316L279.331 2.74591L281.638 10.406C281.797 10.9348 282.355 11.2344 282.884 11.0751C283.413 10.9158 283.712 10.358 283.553 9.82917L280.958 1.21159ZM0.146718 2.02145C0.488461 2.58066 0.833785 3.1414 1.18266 3.70356L2.882 2.64894C2.53554 2.09067 2.19263 1.53384 1.85328 0.97855L0.146718 2.02145ZM3.31827 7.09256C4.03819 8.21795 4.77184 9.34803 5.51897 10.482L7.18904 9.38156C6.44685 8.25513 5.7181 7.13259 5.00303 6.0148L3.31827 7.09256ZM7.73556 13.7985C8.48701 14.9071 9.25099 16.0186 10.0273 17.1321L11.6679 15.9883C10.8967 14.882 10.1376 13.7777 9.39108 12.6763L7.73556 13.7985ZM12.3308 20.3915C13.1072 21.4752 13.8949 22.5602 14.6938 23.6456L16.3046 22.46C15.5107 21.3815 14.728 20.3035 13.9566 19.2268L12.3308 20.3915ZM17.0979 26.8682C17.8993 27.9282 18.7112 28.9879 19.5333 30.0467L21.113 28.8202C20.2962 27.7681 19.4895 26.7152 18.6933 25.6621L17.0979 26.8682ZM22.0303 33.2199C22.858 34.2577 23.6954 35.294 24.5423 36.3281L26.0896 35.0609C25.2482 34.0335 24.4162 33.004 23.5939 31.9729L22.0303 33.2199ZM27.1096 39.4211C27.9699 40.4436 28.8394 41.4634 29.7181 42.4798L31.2311 41.1719C30.3584 40.1623 29.4947 39.1493 28.6401 38.1335L27.1096 39.4211ZM32.36 45.4948C33.2495 46.4961 34.1478 47.4934 35.0547 48.4862L36.5314 47.1373C35.6308 46.1514 34.7387 45.161 33.8552 44.1665L32.36 45.4948ZM37.7798 51.4278C38.6954 52.4022 39.6192 53.3715 40.5512 54.3352L41.9888 52.9449C41.0636 51.9882 40.1464 51.0258 39.2373 50.0583L37.7798 51.4278ZM43.3677 57.2051C44.3112 58.1524 45.2626 59.0934 46.2217 60.0277L47.6173 58.5951C46.6654 57.6679 45.7212 56.7339 44.7847 55.7937L43.3677 57.2051ZM49.1221 62.8097C50.0959 63.7292 51.0772 64.6414 52.0659 65.5457L53.4157 64.0699C52.4349 63.1729 51.4614 62.2679 50.4952 61.3556L49.1221 62.8097ZM55.0531 68.2332C56.0562 69.1208 57.0666 69.9999 58.0841 70.8699L59.3838 69.3498C58.3751 68.4873 57.3732 67.6156 56.3784 66.7353L55.0531 68.2332ZM61.1645 73.4577C62.1983 74.3107 63.239 75.154 64.2866 75.987L65.5313 74.4216C64.4934 73.5962 63.462 72.7605 62.4374 71.915L61.1645 73.4577ZM67.4571 78.4602C68.5237 79.2762 69.597 80.0812 70.6769 80.8744L71.861 79.2626C70.7917 78.4771 69.7288 77.68 68.6723 76.8717L67.4571 78.4602ZM73.9359 83.2187C75.036 83.9933 76.1426 84.7554 77.2555 85.5045L78.3723 83.8454C77.2712 83.1043 76.1762 82.35 75.0873 81.5834L73.9359 83.2187ZM80.6162 87.7143C81.7459 88.4395 82.8817 89.1509 84.0236 89.848L85.0656 88.1409C83.9369 87.4519 82.8138 86.7484 81.6966 86.0312L80.6162 87.7143ZM87.4898 91.9085C88.6512 92.5804 89.8185 93.237 90.9915 93.8778L91.9503 92.1225C90.7919 91.4898 89.6388 90.8411 88.4913 90.1773L87.4898 91.9085ZM94.556 95.7664C95.7528 96.3808 96.9553 96.9785 98.1633 97.5586L99.0291 95.7557C97.8374 95.1834 96.6508 94.5937 95.4695 93.9872L94.556 95.7664ZM101.813 99.2499C103.045 99.7999 104.281 100.331 105.524 100.843L106.286 98.9945C105.062 98.4898 103.843 97.966 102.629 97.4238L101.813 99.2499ZM109.266 102.322C110.527 102.798 111.793 103.254 113.065 103.689L113.712 101.797C112.461 101.368 111.214 100.919 109.972 100.45L109.266 102.322ZM116.901 104.933C118.187 105.327 119.478 105.7 120.774 106.049L121.295 104.118C120.022 103.775 118.752 103.409 117.487 103.021L116.901 104.933ZM124.691 107.034C126.002 107.339 127.317 107.621 128.636 107.879L129.019 105.916C127.724 105.663 126.432 105.386 125.145 105.086L124.691 107.034ZM132.612 108.579C133.942 108.788 135.276 108.972 136.614 109.13L136.849 107.144C135.536 106.989 134.227 106.808 132.922 106.603L132.612 108.579ZM140.632 109.526C141.972 109.631 143.316 109.71 144.662 109.763L144.74 107.764C143.42 107.713 142.103 107.635 140.789 107.532L140.632 109.526ZM148.712 109.838C150.051 109.836 151.393 109.806 152.738 109.749L152.653 107.751C151.336 107.807 150.021 107.836 148.709 107.838L148.712 109.838ZM156.777 109.494C158.114 109.382 159.453 109.241 160.795 109.073L160.546 107.088C159.231 107.254 157.919 107.391 156.61 107.501L156.777 109.494ZM164.782 108.487C166.114 108.264 167.447 108.012 168.782 107.731L168.37 105.774C167.062 106.049 165.755 106.296 164.451 106.515L164.782 108.487ZM172.685 106.826C173.984 106.497 175.285 106.14 176.587 105.754L176.02 103.837C174.743 104.215 173.468 104.565 172.194 104.887L172.685 106.826ZM180.452 104.527C181.706 104.101 182.962 103.648 184.218 103.168L183.504 101.3C182.271 101.771 181.039 102.215 179.809 102.633L180.452 104.527ZM187.989 101.644C189.212 101.123 190.436 100.575 191.66 100L190.811 98.1899C189.608 98.7543 188.406 99.292 187.206 99.8036L187.989 101.644ZM195.261 98.2335C196.462 97.6184 197.663 96.9769 198.864 96.3087L197.892 94.5609C196.71 95.2182 195.529 95.8489 194.349 96.4536L195.261 98.2335ZM202.323 94.3106C203.458 93.6301 204.594 92.9254 205.73 92.196L204.649 90.5131C203.531 91.2314 202.413 91.9252 201.295 92.595L202.323 94.3106ZM209.137 89.9337C210.223 89.1889 211.309 88.4212 212.394 87.6304L211.217 86.0139C210.146 86.7937 209.076 87.5504 208.006 88.2844L209.137 89.9337ZM215.592 85.2333C216.658 84.4117 217.723 83.5674 218.788 82.7003L217.525 81.1494C216.474 82.0055 215.422 82.8388 214.371 83.6494L215.592 85.2333ZM221.875 80.1206C222.87 79.2688 223.863 78.3966 224.857 77.504L223.52 76.0164C222.538 76.8987 221.556 77.7604 220.574 78.6019L221.875 80.1206ZM227.835 74.7642C228.823 73.8344 229.81 72.8841 230.797 71.913L229.394 70.4876C228.418 71.4484 227.441 72.3884 226.464 73.3078L227.835 74.7642ZM233.563 69.1336C234.485 68.1888 235.406 67.2256 236.326 66.2437L234.867 64.8759C233.956 65.8482 233.044 66.8019 232.132 67.7371L233.563 69.1336ZM239.086 63.2421C239.98 62.2497 240.875 61.2395 241.768 60.2113L240.258 58.8995C239.373 59.9186 238.487 60.9196 237.6 61.9028L239.086 63.2421ZM244.323 57.219C245.174 56.205 246.025 55.1745 246.874 54.1272L245.321 52.8671C244.478 53.9059 243.635 54.9278 242.791 55.9332L244.323 57.219ZM249.421 50.9351C250.245 49.8849 251.068 48.8187 251.891 47.7365L250.299 46.5263C249.482 47.6004 248.665 48.6584 247.848 49.7004L249.421 50.9351ZM254.245 44.5921C255.029 43.5292 255.812 42.4515 256.595 41.3588L254.969 40.1943C254.192 41.2795 253.414 42.3496 252.636 43.4049L254.245 44.5921ZM258.94 38.0358C259.715 36.9217 260.489 35.7928 261.263 34.6489L259.606 33.5288C258.837 34.6654 258.068 35.787 257.298 36.8938L258.94 38.0358ZM263.429 31.4022C264.15 30.3067 264.871 29.1982 265.591 28.0763L263.907 26.9962C263.192 28.1115 262.475 29.2135 261.759 30.3022L263.429 31.4022ZM267.748 24.6707C268.466 23.5221 269.183 22.3602 269.9 21.1847L268.192 20.1436C267.48 21.3127 266.766 22.4682 266.052 23.6103L267.748 24.6707ZM271.973 17.7433C272.636 16.6284 273.299 15.5018 273.96 14.3633L272.231 13.3581C271.573 14.4907 270.914 15.6116 270.254 16.7206L271.973 17.7433ZM275.944 10.9126C276.604 9.75056 277.264 8.57659 277.922 7.39067L276.174 6.41952C275.518 7.59984 274.862 8.76816 274.205 9.92457L275.944 10.9126ZM279.896 3.79694C280.225 3.19202 280.553 2.58408 280.881 1.97313L279.119 1.02687C278.792 1.63509 278.466 2.24028 278.139 2.84245L279.896 3.79694Z" fill="#3B71FE"/>
</svg>
